PathFileType	4	(X/Y/Z)	/Users/whiskymisky/masters/Sports2D_results/trial_4_Sports2D/trial_4_Sports2D_m_person00.trc
DataRate	CameraRate	NumFrames	NumMarkers	Units	OrigDataRate	OrigDataStartFrame	OrigNumFrames
50	50	7	22	m	50	960	1098
Frame#	Time	Hip			RHip			RKnee			RAnkle			RBigToe			RSmallToe			RHeel			LHip			LKnee			LAnkle			LBigToe			LSmallToe			LHeel			Neck			Head			Nose			RShoulder			RElbow			RWrist			LShoulder			LElbow			LWrist		
		X1	Y1	Z1	X2	Y2	Z2	X3	Y3	Z3	X4	Y4	Z4	X5	Y5	Z5	X6	Y6	Z6	X7	Y7	Z7	X8	Y8	Z8	X9	Y9	Z9	X10	Y10	Z10	X11	Y11	Z11	X12	Y12	Z12	X13	Y13	Z13	X14	Y14	Z14	X15	Y15	Z15	X16	Y16	Z16	X17	Y17	Z17	X18	Y18	Z18	X19	Y19	Z19	X20	Y20	Z20	X21	Y21	Z21	X22	Y22	Z22
960	19.2	4.26873592913604	0.8465237522496618	0.0301	4.138145974092089	0.8582159489477257	0.0301	3.8464264354808213	0.5068853494606188	0.129	3.6144137596587447	0.19688826565903542	0.023	3.5749852841637746	0.08241247975349149	0.2179	3.5090896161888105	0.13231959233514995	0.1804	3.6120602970396227	0.14710214206633582	-0.0119	4.356174816193858	0.7562210966280717	0.0301	4.2346655896255205	0.3440942453970381	0.129	4.142960747837873	0.007739044979052435	0.023	4.135540800888998	-0.12077012919192237	0.2179	4.185540428585123	-0.12015139388459302	0.1804	4.101585767083759	-0.023045040026486212	-0.0119	4.532823960661963	1.3686012151192315	0.0008	4.6356970304559235	1.6242785730475235	0.0655	4.579363564363139	1.480107836735888	0.1076	4.3209408060348515	1.3962343168872156	-0.01275	4.0473103166698525	1.4498729810359574	0.0702	4.072887284954902	1.6867437240928709	0.1076	4.693861132681811	1.2325932529550196	-0.01275	4.908483770334888	1.0951478982455691	0.0702	5.066996101768649	1.2888552718311992	0.1076
961	19.22	4.268725203683854	0.8469608660422608	0.0301	4.137417544327141	0.8585447943460849	0.0301	3.8471594457316023	0.5072137945253743	0.129	3.6156733318511205	0.19797508097463362	0.023	3.573894954685473	0.0834515187738099	0.2179	3.5083923002781177	0.13190387951104218	0.1804	3.6129918738724007	0.14839890135797035	-0.0119	4.356841855157921	0.7572426695121515	0.0301	4.233766645951343	0.3450956341721173	0.129	4.142766844692596	0.010193448180080182	0.023	4.134787585812897	-0.12118524586817779	0.2179	4.18637111376261	-0.12003080729307902	0.1804	4.101220896430575	-0.020004346732357122	-0.0119	4.532114565052283	1.3693271544836185	0.0008	4.635846770472687	1.6258612901289649	0.0655	4.578290493648319	1.479956861756716	0.1076	4.321651700963018	1.3964125167776857	-0.01275	4.046579343754937	1.4495299312896592	0.0702	4.071615692925272	1.6876170189016777	0.1076	4.694047681601814	1.2328799702701212	-0.01275	4.909140943801662	1.095371703706007	0.0702	5.068444787091353	1.288969836318334	0.1076
962	19.240000000000002	4.268706008056426	0.8479846149208055	0.0301	4.136859571688337	0.8588221845332584	0.0301	3.848383424406341	0.50743224811044	0.129	3.6176042812638527	0.19955180019835828	0.023	3.5735800561446083	0.08478660751738112	0.2179	3.507961435329821	0.13172969075486363	0.1804	3.6139348834818055	0.15048620176180486	-0.0119	4.357852280362735	0.7582773527799105	0.0301	4.232983246767482	0.34603188776245336	0.129	4.1427524738862225	0.01278921730912474	0.023	4.133858401807032	-0.12117519124283939	0.2179	4.187287617440585	-0.119329052574499	0.1804	4.100690124079006	-0.015936031580456	-0.0119	4.53155543722207	1.3700232077229333	0.0008	4.637159216799946	1.6277853221698355	0.0655	4.577437767943079	1.4801870719082033	0.1076	4.322828689331977	1.396434197213457	-0.01275	4.04617011378881	1.4489329535055493	0.0702	4.070393369523751	1.6883455726447683	0.1076	4.694564780799679	1.2332051513925646	-0.01275	4.90961183099145	1.09563638086726	0.0702	5.069285715286596	1.2898049756542906	0.1076
963	19.26	4.268698204923847	0.8491910264981243	0.0301	4.13653904845105	0.859194866689969	0.0301	3.8497829040578786	0.5076604604743482	0.129	3.619417785478055	0.2011823545407672	0.023	3.5735629174544408	0.08622961856053113	0.2179	3.5075299139969762	0.13182106043206676	0.1804	3.6144836052045615	0.15273412052547417	-0.0119	4.358773516400965	0.7592349444873819	0.0301	4.232368195273907	0.3467170648175708	0.129	4.142745595550294	0.014838046833937057	0.023	4.13300326331068	-0.12092795269878909	0.2179	4.188033755579146	-0.11830205456509739	0.1804	4.100028783745499	-0.012074680985368142	-0.0119	4.531196849439318	1.3706796892434534	0.0008	4.6389908951705525	1.6295930975983668	0.0655	4.576687182856246	1.4807865722124154	0.1076	4.324162673100338	1.3964222586758424	-0.01275	4.046262514093555	1.4483995138991836	0.0702	4.069431644232706	1.6887368257588562	0.1076	4.695183724175157	1.2338124760249793	-0.01275	4.909767501209704	1.0958332426525816	0.0702	5.069079612949346	1.2908906366322834	0.1076
964	19.28	4.2687231842687385	0.8501742614541565	0.0301	4.136514852709572	0.8597935533375168	0.0301	3.851046097964303	0.5080178321810537	0.129	3.620325741130623	0.20243130698533454	0.023	3.573331686006828	0.08760834700133574	0.2179	3.5068137288062027	0.13219365796269245	0.1804	3.6142429081662537	0.15450458855066065	-0.0119	4.359181581710608	0.7600379465096739	0.0301	4.2319659517985	0.34697301559736676	0.129	4.142584053041167	0.015666233946364582	0.023	4.132480068870883	-0.12065922332825947	0.2179	4.188365430920653	-0.11721532374287036	0.1804	4.0992731960512545	-0.009653282112993569	-0.0119	4.531087695705207	1.3712842115671748	0.0008	4.64067598941754	1.6308364400253401	0.0655	4.5759016907867975	1.4817013861347081	0.1076	4.325343279066535	1.3965000998136143	-0.01275	4.047011955704796	1.448254524576453	0.0702	4.06893927155219	1.6886153654083298	0.1076	4.695665238424125	1.2349352491371788	-0.01275	4.909464320830313	1.0958517343631609	0.0702	5.067407159438111	1.29177395734311	0.1076
965	19.3	4.268795783488174	0.8507213667532452	0.0301	4.136781372534807	0.8606371829325418	0.0301	3.8519992380082355	0.5085456898213236	0.129	3.6199584030316414	0.2030674603144434	0.023	3.5725936965326333	0.08882549486490149	0.2179	3.5056602428637667	0.1328301875774076	0.1804	3.6130611820068905	0.15544999738524284	-0.0119	4.358882732260792	0.7606611373181845	0.0301	4.23179373665762	0.34676178088779724	0.129	4.142204564872352	0.01503053597019111	0.023	4.132405124456782	-0.12050981231480816	0.2179	4.188168427924303	-0.11624026073884462	0.1804	4.098454344367752	-0.009259009082905185	-0.0119	4.531230330702159	1.371821646097186	0.0008	4.641814455631855	1.6313303860521913	0.0655	4.574997493571957	1.4828129695776122	0.1076	4.326162290423943	1.396743309304951	-0.01275	4.048413230805924	1.4486540494387115	0.0702	4.068995225643999	1.6879632099946777	0.1076	4.6958660470207505	1.2366459161871428	-0.01275	4.908638986853577	1.0956679507124019	0.0702	5.064219618252008	1.292245033388632	0.1076
966	19.32	4.2689208342947955	0.850875161554717	0.0301	4.137225415486806	0.8615806912858711	0.0301	3.8526329254042406	0.5091641786446537	0.129	3.618544526830133	0.2031322360035113	0.023	3.571348946887068	0.08986610322958273	0.2179	3.504109722358444	0.13364958687884151	0.1804	3.6111723187669225	0.15561191244183922	-0.0119	4.358013287906084	0.761151657864924	0.0301	4.231820712964429	0.34626182762590185	0.129	4.141678910513121	0.01333627570811085	0.023	4.1326867903008635	-0.1205189089294799	0.2179	4.187522368337876	-0.11544707755075274	0.1804	4.097611533006526	-0.010565110208588788	-0.0119	4.531546317048547	1.3722763169146086	0.0008	4.642327916862516	1.6312760703825517	0.0655	4.573971764583163	1.4838931464679241	0.1076	4.3265303909867505	1.3971657190402091	-0.01275	4.050188992183205	1.4495146334425977	0.0702	4.069468854258379	1.6870243961128661	0.1076	4.695779867231837	1.2387608642172272	-0.01275	4.907391168635098	1.095377765110666	0.0702	5.060098961086362	1.2924009528820255	0.1076
